<svg width="332" height="220" viewBox="0 0 332 220" fill="none" xmlns="http://www.w3.org/2000/svg">
<path d="M237.351 92.177C234.622 94.9958 233.552 98.5099 233.357 99.9146C237.056 105.849 243.012 105.978 245.529 105.301C265.899 86.5526 267.039 75.9824 263.279 77.2033C261.325 77.8381 264.682 71.7376 263.495 68.5444C262.307 65.3514 258.435 74.5703 259.37 70.9268C260.305 67.283 258.523 54.8488 256.526 66.362C255.48 72.398 247.837 84.5699 245.124 85.3605C242.413 86.1511 243.103 79.5444 240.504 77.9427C237.903 76.3408 240.765 88.6536 237.351 92.177Z" fill="#FFC79E"/>
<path d="M153.195 75.1263C169.909 75.1263 168.046 46.4517 163.597 37.5707C133.909 26.915 126.212 53.9137 131.467 61.6273C135.672 67.798 129.511 77.9699 129.252 85.0916C138.062 111.811 165.996 101.917 153.195 87.0256V75.1263Z" fill="#FFC79E"/>
<path d="M131.089 56.7043C133.67 52.9689 136.972 55.4861 138.3 57.2113C140.892 51.2732 137.165 42.4437 139.456 40.769C141.748 39.0941 163.59 42.5169 165.297 34.018C166.534 27.8558 159.149 23.0654 152.573 29.4513C152.758 26.8125 151.705 21.1895 146.004 19.8093C140.303 18.4292 138.392 24.9861 138.15 28.4371C136.581 26.6948 132.545 23.6366 128.946 25.3418C125.348 27.0471 126.99 32.5482 128.261 35.0856C111.867 37.3598 116.842 46.3186 121.379 50.5135C115.838 63.3432 126.053 67.9426 132.967 69.2447L135.709 63.1493C133.093 62.5574 128.507 60.4394 131.089 56.7043Z" fill="#191720"/>
<path d="M140.53 71.3604C145.945 74.9187 151.295 75.4217 153.293 75.2283V82.9638C146.177 80.4884 141.819 74.1968 140.53 71.3604Z" fill="#191720"/>
<path d="M73.6618 173.832C68.9708 173.441 41.1677 147.324 41.1677 130.099H63.4005L73.6618 140.605C86.8549 122.159 93.9401 98.2159 104.324 92.7188C109.334 90.0664 119.105 86.8553 124.113 87.4659C125.579 83.2637 128.715 81.073 130.099 80.5029C133.813 88.2235 141.745 92.678 145.247 93.9405L144.392 101.026H150.011V98.2159C156.559 94.6978 154.572 88.9725 153.309 86.8553C154.572 87.3847 162.789 89.787 167.968 92.7188C173.148 95.6505 189.305 122.281 198.386 135.23L226.359 92.7188L247.861 107.744C236.744 126.598 211.701 163.986 200.463 162.716C189.224 161.445 173.221 145.329 166.625 137.429L178.474 200.951H86.8549L103.42 143.726C99.0548 153.854 80.321 174.387 73.6618 173.832Z" fill="#29B067"/>
<path d="M141.142 101.588C157.464 104.786 162.345 95.4602 162.745 90.3975C164.345 90.3975 165.278 91.1968 165.545 91.5965C166.745 96.7924 157.144 103.987 148.343 103.987C139.541 103.987 132.74 101.588 129.14 102.388C125.539 103.187 124.824 103.187 123.539 134.762C122.511 160.021 109.405 194.788 108.233 195.454C109.833 190.258 122.339 125.569 122.739 115.977C123.139 106.385 120.739 97.5918 141.142 101.588Z" fill="#108847"/>
<path d="M250.671 105.301L225.811 92.3521L220.863 101.148L243.83 114.707L250.671 105.301Z" fill="#108847"/>
<path d="M131.076 114.585C132.898 114.585 134.375 113.108 134.375 111.287C134.375 109.465 132.898 107.988 131.076 107.988C129.255 107.988 127.778 109.465 127.778 111.287C127.778 113.108 129.255 114.585 131.076 114.585Z" fill="white"/>
<path d="M130.344 132.176C132.165 132.176 133.642 130.699 133.642 128.878C133.642 127.056 132.165 125.58 130.344 125.58C128.522 125.58 127.045 127.056 127.045 128.878C127.045 130.699 128.522 132.176 130.344 132.176Z" fill="white"/>
<path d="M130.344 149.522C132.165 149.522 133.642 148.046 133.642 146.224C133.642 144.402 132.165 142.926 130.344 142.926C128.522 142.926 127.045 144.402 127.045 146.224C127.045 148.046 128.522 149.522 130.344 149.522Z" fill="white"/>
<path d="M121.156 40.3196L119.154 35.9161C100.34 40.3196 101.14 23.5059 107.945 18.302C113.39 14.1387 121.423 16.5672 124.759 18.302C122.757 11.0962 130.763 -2.11399 143.573 0.287857C153.821 2.20933 156.65 10.4294 156.784 14.2992C174.397 13.0983 167.592 30.3117 162.388 31.5126C158.225 32.4734 155.049 30.0449 153.981 28.7106C146.295 33.1942 128.895 38.318 121.156 40.3196Z" fill="#29B067"/>
<path d="M141.949 98.6915C131.291 94.6952 125.633 89.0538 124.136 86.7329L120.571 87.3435C129.552 97.395 138.605 98.8934 141.949 98.6915Z" fill="#108847"/>
<path d="M121.171 40.3124L119.227 35.6517C130.951 35.6517 147.241 30.9407 153.92 28.5852C146.024 33.7574 128.798 38.5585 121.171 40.3124Z" fill="#108847"/>
<path d="M269.166 200.333H54.6348L35.9145 219.878H286.584L269.166 200.333Z" fill="#FFCF54"/>
<path d="M82.8235 220C118.201 217.361 136.085 206.603 140.605 201.554L269.726 200.088L285.852 220H82.8235Z" fill="#FFC227"/>
<path d="M128.511 26.7004C135.823 30.7955 151.679 34.0718 156.608 14.415C154.955 19.5588 147.022 29.2175 128.511 26.7004Z" fill="#108847"/>
<path d="M215.062 202.537C182.04 213.602 151.059 207.147 139.696 202.537V165.191C142.04 157.666 163.398 157.167 179.643 157.168C207.606 157.168 214.53 162.425 215.595 165.191L215.062 202.537Z" fill="#F05E36"/>
<path d="M177.512 172.659C197.809 172.659 214.263 169.439 214.263 165.467C214.263 161.495 197.809 158.274 177.512 158.274C157.215 158.274 140.761 161.495 140.761 165.467C140.761 169.439 157.215 172.659 177.512 172.659Z" fill="#FFCF54"/>
<path d="M216.659 174.32L215.328 175.427V180.13L217.458 177.363H224.384C225.118 177.363 225.715 176.767 225.715 176.032V175.652C225.715 174.917 225.118 174.32 224.384 174.32H216.659Z" fill="#E44215"/>
<path d="M138.262 174.32L139.696 175.48V180.406L137.402 177.508H129.843C129.107 177.508 128.511 176.912 128.511 176.177V175.652C128.511 174.917 129.107 174.32 129.843 174.32H138.262Z" fill="#E44215"/>
<path d="M215.346 169.701C176.792 184.129 145.173 173.562 142.113 171.53C155.984 183.885 191.411 181.555 207.39 178.845V204.653C211.307 204.003 214.326 202.757 215.346 202.215V169.701Z" fill="#E44215"/>
<path d="M169.908 163.044L174.665 171.283H165.152L169.908 163.044Z" fill="#FFDB9F"/>
<path d="M178.239 164.454L187.789 164.385L183.073 172.69L178.239 164.454Z" fill="#FFDB9F"/>
<path d="M153.696 159.514L163.245 159.445L158.53 167.75L153.696 159.514Z" fill="#FFDB9F"/>
<path d="M195.108 165.286L200.737 157.571L204.604 166.303L195.108 165.286Z" fill="#FFDB9F"/>
<path d="M183.847 161.205L191.295 155.229L192.747 164.667L183.847 161.205Z" fill="#FFDB9F"/>
<path d="M167.065 160.174L174.733 154.482L175.829 163.969L167.065 160.174Z" fill="#FFDB9F"/>
<path d="M238.968 58.5179C263.83 55.4415 282.329 34.3748 288.469 24.2261C274.343 23.367 243.305 23.1053 232.185 28.932C218.285 36.2156 207.889 62.3632 238.968 58.5179Z" fill="#F9D9A3"/>
<path d="M281.075 6.25775C249.411 8.2703 231.496 24.7237 226.495 32.6988C280.409 10.5094 318.268 36.2457 328.877 28.8974C339.483 21.5494 320.652 3.74221 281.075 6.25775Z" fill="#F5E4C7"/>
<path d="M48.3748 149.767L44.4656 141.216H73.7838L48.3748 149.767Z" fill="#108847"/>
<path d="M39.8685 101.977C41.9867 101.977 43.7038 100.26 43.7038 98.1417C43.7038 96.0235 41.9867 94.3064 39.8685 94.3064C37.7503 94.3064 36.0332 96.0235 36.0332 98.1417C36.0332 100.26 37.7503 101.977 39.8685 101.977Z" fill="#267C81"/>
<path d="M32.9644 102.747C11.735 107.467 5.86163 127.293 5.35037 135.73L72.8513 137.264C74.3856 124.224 60.5784 96.6074 32.9644 102.747Z" fill="#267C81"/>
<path d="M44.4695 107.345C55.5151 114.709 55.7196 128.823 54.4412 134.959H67.4812C63.7993 115.936 50.606 109.135 44.4695 107.345Z" fill="#45BEC5"/>
<path d="M2.29853 141.114L0 135.739H78.9145L76.6162 141.114H2.29853Z" fill="#1A4945"/>
</svg>
